<mxfile host="app.diagrams.net" agent="Mozilla/5.0 (Windows NT 10.0; Win64; x64) AppleWebKit/537.36 (KHTML, like Gecko) Chrome/137.0.0.0 Safari/537.36" version="27.1.6">
  <diagram name="Caso de Uso - Bautizos Comunitarios" id="use-case-diagram">
    <mxGraphModel dx="1111" dy="473" grid="1" gridSize="10" guides="1" tooltips="1" connect="1" arrows="1" fold="1" page="1" pageScale="1" pageWidth="1169" pageHeight="827" math="0" shadow="0">
      <root>
        <mxCell id="0" />
        <mxCell id="1" parent="0" />
        <mxCell id="system-boundary" value="Sistema de Punto de Venta Parroquial" style="swimlane;whiteSpace=wrap;html=1;fontSize=14;fontStyle=1;startSize=40;fillColor=#f8f9fa;strokeColor=#6c757d;strokeWidth=2;" parent="1" vertex="1">
          <mxGeometry x="200" y="50" width="700" height="550" as="geometry">
            <mxRectangle x="200" y="50" width="330" height="40" as="alternateBounds" />
          </mxGeometry>
        </mxCell>
        <mxCell id="uc1" value="Solicitar participaciÃ³n en bautizo comunitario" style="ellipse;whiteSpace=wrap;html=1;fontSize=11;fillColor=#e3f2fd;strokeColor=#1976d2;" parent="system-boundary" vertex="1">
          <mxGeometry x="50" y="80" width="180" height="80" as="geometry" />
        </mxCell>
        <mxCell id="uc2" value="Confirmar fecha de bautizo comunitario" style="ellipse;whiteSpace=wrap;html=1;fontSize=11;fillColor=#fff3e0;strokeColor=#f57c00;" parent="system-boundary" vertex="1">
          <mxGeometry x="300" y="80" width="180" height="80" as="geometry" />
        </mxCell>
        <mxCell id="uc3" value="Registrar datos de participantes" style="ellipse;whiteSpace=wrap;html=1;fontSize=11;fillColor=#fff3e0;strokeColor=#f57c00;" parent="system-boundary" vertex="1">
          <mxGeometry x="500" y="80" width="180" height="80" as="geometry" />
        </mxCell>
        <mxCell id="uc4" value="Realizar pago por participante" style="ellipse;whiteSpace=wrap;html=1;fontSize=11;fillColor=#e3f2fd;strokeColor=#1976d2;" parent="system-boundary" vertex="1">
          <mxGeometry x="50" y="220" width="180" height="80" as="geometry" />
        </mxCell>
        <mxCell id="uc5" value="Emitir recibo de pago" style="ellipse;whiteSpace=wrap;html=1;fontSize=11;fillColor=#fff3e0;strokeColor=#f57c00;" parent="system-boundary" vertex="1">
          <mxGeometry x="300" y="220" width="180" height="80" as="geometry" />
        </mxCell>
        <mxCell id="uc6" value="Confirmar participaciÃ³n en bautizo" style="ellipse;whiteSpace=wrap;html=1;fontSize=11;fillColor=#fff3e0;strokeColor=#f57c00;" parent="system-boundary" vertex="1">
          <mxGeometry x="500" y="220" width="180" height="80" as="geometry" />
        </mxCell>
        <mxCell id="uc7" value="Gestionar bautizos comunitarios" style="ellipse;whiteSpace=wrap;html=1;fontSize=11;fillColor=#f3e5f5;strokeColor=#7b1fa2;" parent="system-boundary" vertex="1">
          <mxGeometry x="450" y="400" width="180" height="80" as="geometry" />
        </mxCell>
        <mxCell id="actor1" value="FeligrÃ©s" style="shape=umlActor;verticalLabelPosition=bottom;verticalAlign=top;html=1;outlineConnect=0;fontSize=12;fontStyle=1;fillColor=#e8f5e8;strokeColor=#4caf50;" parent="1" vertex="1">
          <mxGeometry x="80" y="220" width="30" height="60" as="geometry" />
        </mxCell>
        <mxCell id="actor2" value="SecretarÃ­a Parroquial" style="shape=umlActor;verticalLabelPosition=bottom;verticalAlign=top;html=1;outlineConnect=0;fontSize=12;fontStyle=1;fillColor=#fff8e1;strokeColor=#ff9800;" parent="1" vertex="1">
          <mxGeometry x="980" y="220" width="30" height="60" as="geometry" />
        </mxCell>
        <mxCell id="rel1" style="endArrow=none;html=1;rounded=0;strokeColor=#333333;" parent="1" source="actor1" target="uc1" edge="1">
          <mxGeometry relative="1" as="geometry" />
        </mxCell>
        <mxCell id="rel2" style="endArrow=none;html=1;rounded=0;strokeColor=#333333;" parent="1" source="actor1" target="uc4" edge="1">
          <mxGeometry relative="1" as="geometry" />
        </mxCell>
        <mxCell id="rel3" style="endArrow=none;html=1;rounded=0;strokeColor=#333333;" parent="1" source="actor2" target="uc2" edge="1">
          <mxGeometry relative="1" as="geometry" />
        </mxCell>
        <mxCell id="rel4" style="endArrow=none;html=1;rounded=0;strokeColor=#333333;" parent="1" source="actor2" target="uc3" edge="1">
          <mxGeometry relative="1" as="geometry" />
        </mxCell>
        <mxCell id="rel5" style="endArrow=none;html=1;rounded=0;strokeColor=#333333;" parent="1" source="actor2" target="uc5" edge="1">
          <mxGeometry relative="1" as="geometry" />
        </mxCell>
        <mxCell id="rel6" style="endArrow=none;html=1;rounded=0;strokeColor=#333333;" parent="1" source="actor2" target="uc6" edge="1">
          <mxGeometry relative="1" as="geometry" />
        </mxCell>
        <mxCell id="rel7" style="endArrow=none;html=1;rounded=0;strokeColor=#333333;" parent="1" source="actor2" target="uc7" edge="1">
          <mxGeometry relative="1" as="geometry" />
        </mxCell>
        <mxCell id="include1" style="endArrow=open;endSize=12;dashed=1;html=1;rounded=0;strokeColor=#666666;exitX=1;exitY=0.5;exitDx=0;exitDy=0;entryX=0;entryY=0.5;entryDx=0;entryDy=0;" parent="1" source="uc1" target="uc2" edge="1">
          <mxGeometry x="0.1" y="10" relative="1" as="geometry">
            <mxPoint as="offset" />
          </mxGeometry>
        </mxCell>
        <mxCell id="include1-label" value="&amp;lt;&amp;lt;include&amp;gt;&amp;gt;" style="text;html=1;align=center;verticalAlign=middle;resizable=0;points=[];autosize=1;strokeColor=none;fillColor=none;fontSize=10;fontStyle=2;" parent="1" vertex="1">
          <mxGeometry x="350" y="100" width="80" height="30" as="geometry" />
        </mxCell>
        <mxCell id="include2" style="endArrow=open;endSize=12;dashed=1;html=1;rounded=0;strokeColor=#666666;exitX=1;exitY=0.5;exitDx=0;exitDy=0;entryX=0;entryY=0.5;entryDx=0;entryDy=0;" parent="1" source="uc2" target="uc3" edge="1">
          <mxGeometry x="0.1" y="10" relative="1" as="geometry">
            <mxPoint as="offset" />
          </mxGeometry>
        </mxCell>
        <mxCell id="include2-label" value="&amp;lt;&amp;lt;include&amp;gt;&amp;gt;" style="text;html=1;align=center;verticalAlign=middle;resizable=0;points=[];autosize=1;strokeColor=none;fillColor=none;fontSize=10;fontStyle=2;" parent="1" vertex="1">
          <mxGeometry x="550" y="100" width="80" height="30" as="geometry" />
        </mxCell>
        <mxCell id="include3" style="endArrow=open;endSize=12;dashed=1;html=1;rounded=0;strokeColor=#666666;exitX=1;exitY=0.5;exitDx=0;exitDy=0;entryX=0;entryY=0.5;entryDx=0;entryDy=0;" parent="1" source="uc4" target="uc5" edge="1">
          <mxGeometry x="0.1" y="10" relative="1" as="geometry">
            <mxPoint as="offset" />
          </mxGeometry>
        </mxCell>
        <mxCell id="include3-label" value="&amp;lt;&amp;lt;include&amp;gt;&amp;gt;" style="text;html=1;align=center;verticalAlign=middle;resizable=0;points=[];autosize=1;strokeColor=none;fillColor=none;fontSize=10;fontStyle=2;" parent="1" vertex="1">
          <mxGeometry x="350" y="240" width="80" height="30" as="geometry" />
        </mxCell>
        <mxCell id="include4" style="endArrow=open;endSize=12;dashed=1;html=1;rounded=0;strokeColor=#666666;exitX=1;exitY=0.5;exitDx=0;exitDy=0;entryX=0;entryY=0.5;entryDx=0;entryDy=0;" parent="1" source="uc5" target="uc6" edge="1">
          <mxGeometry x="0.1" y="10" relative="1" as="geometry">
            <mxPoint as="offset" />
          </mxGeometry>
        </mxCell>
        <mxCell id="include4-label" value="&amp;lt;&amp;lt;include&amp;gt;&amp;gt;" style="text;html=1;align=center;verticalAlign=middle;resizable=0;points=[];autosize=1;strokeColor=none;fillColor=none;fontSize=10;fontStyle=2;" parent="1" vertex="1">
          <mxGeometry x="550" y="240" width="80" height="30" as="geometry" />
        </mxCell>
        <mxCell id="title" value="Diagrama de Casos de Uso - Sistema de Registro y Pago de Bautizos Comunitarios" style="text;html=1;strokeColor=none;fillColor=none;align=center;verticalAlign=middle;whiteSpace=wrap;rounded=0;fontSize=16;fontStyle=1;" parent="1" vertex="1">
          <mxGeometry x="200" y="10" width="700" height="30" as="geometry" />
        </mxCell>
        <mxCell id="legend" value="Leyenda:&#xa;í ½í´µ Casos de uso del FeligrÃ©s&#xa;í ½í¿  Casos de uso de la SecretarÃ­a&#xa;í ½í¿£ Casos de uso generales" style="text;html=1;strokeColor=#cccccc;fillColor=#f9f9f9;align=left;verticalAlign=top;whiteSpace=wrap;rounded=1;fontSize=10;fontFamily=monospace;" parent="1" vertex="1">
          <mxGeometry x="50" y="450" width="200" height="80" as="geometry" />
        </mxCell>
      </root>
    </mxGraphModel>
  </diagram>
</mxfile>
